<?xml version="1.0" encoding="iso-8859-1"?>
<!-- Generator: Adobe Illustrator 19.0.0, SVG Export Plug-In . SVG Version: 6.00 Build 0)  -->
<svg version="1.1" id="Layer_1" xmlns="http://www.w3.org/2000/svg" xmlns:xlink="http://www.w3.org/1999/xlink" x="0px" y="0px"
	 viewBox="0 0 511.999 511.999" style="enable-background:new 0 0 511.999 511.999;" xml:space="preserve">
<path style="fill:#CFDCE5;" d="M483.126,98.869v283.702H29.094V98.869c0-15.531,12.587-28.129,28.118-28.129h397.795
	C470.54,70.74,483.126,83.338,483.126,98.869z"/>
<rect x="68.428" y="110.074" style="fill:#314A5F;" width="375.364" height="233.158"/>
<polygon style="fill:#415E72;" points="443.792,110.073 443.792,343.237 232.824,343.237 233.925,340.495 326.811,110.073 "/>
<path style="fill:#CFDCE5;" d="M503.906,382.571v24.87c0,18.33-14.857,33.187-33.187,33.187H41.501
	c-18.33,0-33.187-14.857-33.187-33.187v-24.87H503.906z"/>
<path style="fill:#BAC6CC;" d="M280.36,410.614h-48.5c-13.14,0-23.792-10.652-23.792-23.792v-4.257h96.084v4.257
	C304.152,399.962,293.5,410.614,280.36,410.614z"/>
<path d="M113.804,118.595c4.532,0,8.205-3.674,8.205-8.205c0-4.531-3.672-8.205-8.205-8.205H68.318
	c-4.532,0-8.205,3.674-8.205,8.205v233.164c0,4.531,3.672,8.205,8.205,8.205h375.364c4.532,0,8.205-3.674,8.205-8.205V110.391
	c0-4.531-3.672-8.205-8.205-8.205H141.9c-4.532,0-8.205,3.674-8.205,8.205c0,4.531,3.672,8.205,8.205,8.205h293.576V335.35H76.522
	V118.595H113.804z"/>
<path d="M503.795,374.678h-12.574V188.523c0-4.531-3.672-8.205-8.205-8.205c-4.532,0-8.205,3.674-8.205,8.205v186.155H37.189V99.186
	c0-10.987,8.933-19.925,19.914-19.925h397.795c10.98,0,19.914,8.938,19.914,19.925v61.242c0,4.531,3.672,8.205,8.205,8.205
	c4.532,0,8.205-3.674,8.205-8.205V99.186c0-20.035-16.295-36.334-36.323-36.334H57.102c-20.03,0-36.323,16.299-36.323,36.334
	v275.492H8.205c-4.532,0-8.205,3.674-8.205,8.205v25.754c0,22.337,18.172,40.51,40.51,40.51h25.674c4.532,0,8.205-3.674,8.205-8.205
	c0-4.531-3.672-8.205-8.205-8.205H40.51c-13.288,0-24.1-10.812-24.1-24.1v-17.549l183.597,0.005
	c1.955,15.783,15.44,28.043,31.744,28.043h48.499c16.302,0,29.788-12.26,31.744-28.043l183.597-0.005v17.549
	c0,13.288-10.812,24.1-24.1,24.1H93.534c-4.532,0-8.205,3.674-8.205,8.205c0,4.531,3.672,8.205,8.205,8.205h377.956
	c22.338,0,40.51-18.173,40.51-40.51v-25.754C512,378.352,508.326,374.678,503.795,374.678z M280.25,402.726H231.75
	c-7.228,0-13.324-4.947-15.079-11.633h78.657C293.573,397.779,287.477,402.726,280.25,402.726z"/>
<g>
</g>
<g>
</g>
<g>
</g>
<g>
</g>
<g>
</g>
<g>
</g>
<g>
</g>
<g>
</g>
<g>
</g>
<g>
</g>
<g>
</g>
<g>
</g>
<g>
</g>
<g>
</g>
<g>
</g>
</svg>
